<svg width="32" height="32" viewBox="0 0 512 60" xmlns="http://www.w3.org/2000/svg">
  <g transform="translate(0 -20)">
    <path d="M7.67 16.58c3.08-.62 6.22-.99 9.39-1.12 3.18-.13 6.38-.02 9.57.32 3.19.35 6.36.96 9.47 1.83 3.11.87 6.16 2 9.12 3.4-.33.95-.65 1.9-.98 2.85-.32.95-.65 1.9-.97 2.85-2.78-1.27-5.64-2.27-8.55-3.01-2.91-.74-5.87-1.21-8.85-1.42-2.98-.21-5.98-.16-8.96.15-2.98.31-5.94.87-8.84 1.68l-5.65-15.24c3.08-.62 6.22-.99 9.39-1.12z" fill="#60A5FA"/>
    <path d="M67.83 16.58l5.65 15.24c-2.9-.81-5.86-1.37-8.84-1.68-2.98-.31-5.98-.36-8.96-.15-2.98.21-5.94.68-8.85 1.42-2.91.74-5.77 1.74-8.55 3.01-.32-.95-.65-1.9-.97-2.85-.33-.95-.65-1.9-.98-2.85 2.96-1.4 6.01-2.53 9.12-3.4 3.11-.87 6.28-1.48 9.47-1.83 3.19-.34 6.39-.45 9.57-.32 3.17.13 6.31.5 9.39 1.12z" fill="#60A5FA"/>
    <path d="M110.5 20.5h15v50h-15V20.5z" fill="#60A5FA"/>
    <path d="M155.5 20.5h13.5l25 32v-32h13.5v50h-13.5l-25-32v32h-13.5v-50z" fill="#60A5FA"/>
    <path d="M250.5 23.5v13.5h-18v33h-15v-33h-18V23.5h51z" fill="#60A5FA"/>
    <path d="M270.5 20.5h40v13.5h-25v7h23v12h-23v7.5h25.5v10h-40.5v-50z" fill="#60A5FA"/>
    <path d="M350.5 45.5h13.38c-.45 3.12-1.33 6.07-2.63 8.82-1.3 2.75-3.01 5.18-5.12 7.28-2.11 2.1-4.61 3.75-7.5 4.96-2.89 1.21-6.15 1.81-9.78 1.81-4.42 0-8.34-.87-11.76-2.61-3.42-1.74-6.33-4.09-8.73-7.05-2.4-2.96-4.24-6.41-5.52-10.35-1.28-3.94-1.92-8.17-1.92-12.69 0-4.52.64-8.75 1.92-12.69 1.28-3.94 3.12-7.39 5.52-10.35 2.4-2.96 5.31-5.31 8.73-7.05 3.42-1.74 7.34-2.61 11.76-2.61 3.63 0 6.89.6 9.78 1.81 2.89 1.21 5.39 2.86 7.5 4.96 2.11 2.1 3.82 4.53 5.12 7.28 1.3 2.75 2.18 5.7 2.63 8.82h-13.38c-.3-1.74-.81-3.32-1.53-4.74-.72-1.42-1.62-2.64-2.7-3.66-1.08-1.02-2.32-1.81-3.72-2.37-1.4-.56-2.94-.84-4.62-.84-2.58 0-4.83.57-6.75 1.71-1.92 1.14-3.51 2.67-4.77 4.59-1.26 1.92-2.2 4.14-2.82 6.66-.62 2.52-.93 5.19-.93 8.01 0 2.82.31 5.49.93 8.01.62 2.52 1.56 4.74 2.82 6.66 1.26 1.92 2.85 3.45 4.77 4.59 1.92 1.14 4.17 1.71 6.75 1.71 1.68 0 3.22-.28 4.62-.84 1.4-.56 2.64-1.35 3.72-2.37 1.08-1.02 1.98-2.24 2.7-3.66.72-1.42 1.23-3 1.53-4.74z" fill="#60A5FA"/>
    <path d="M400.5 20.5h20c3.5 0 6.67.58 9.51 1.74 2.84 1.16 5.26 2.73 7.26 4.71 2 1.98 3.54 4.31 4.62 6.99 1.08 2.68 1.62 5.54 1.62 8.58 0 3.18-.58 6.11-1.74 8.79-1.16 2.68-2.76 4.99-4.8 6.93-2.04 1.94-4.44 3.46-7.2 4.56-2.76 1.1-5.76 1.65-9 1.65h-19.27v-43.95zm15 35.5h5c1.5 0 2.88-.26 4.14-.78 1.26-.52 2.35-1.24 3.27-2.16.92-.92 1.64-2.01 2.16-3.27.52-1.26.78-2.64.78-4.14 0-1.5-.26-2.88-.78-4.14-.52-1.26-1.24-2.35-2.16-3.27-.92-.92-2.01-1.64-3.27-2.16-1.26-.52-2.64-.78-4.14-.78h-5v20.7z" fill="#60A5FA"/>
    <path d="M470.5 20.5h20c2.92 0 5.61.49 8.07 1.47 2.46.98 4.58 2.33 6.36 4.05 1.78 1.72 3.17 3.74 4.17 6.06 1 2.32 1.5 4.82 1.5 7.5 0 2.18-.34 4.24-1.02 6.18-.68 1.94-1.64 3.68-2.88 5.22l11.4 19.52h-17.1l-9-15h-6.5v15h-15v-50zm15 23h5c1.08 0 2.07-.18 2.97-.54.9-.36 1.68-.85 2.34-1.47.66-.62 1.18-1.35 1.56-2.19.38-.84.57-1.75.57-2.73 0-.98-.19-1.89-.57-2.73-.38-.84-.9-1.57-1.56-2.19-.66-.62-1.44-1.11-2.34-1.47-.9-.36-1.89-.54-2.97-.54h-5v13.86z" fill="#60A5FA"/>
    <path d="M10 35.5l15 35h-18l-7-35z" fill="#60A5FA"/>
    <path d="M65 35.5l-15 35h18l7-35z" fill="#60A5FA"/>
  </g>
</svg>
